<mxfile host="app.diagrams.net" agent="Mozilla/5.0 (Windows NT 10.0; Win64; x64) AppleWebKit/537.36 (KHTML, like Gecko) Chrome/134.0.0.0 Safari/537.36" version="26.1.0">
  <diagram name="Page-1" id="tFrqM0a7Q25Ue6IqmIPy">
    <mxGraphModel dx="1593" dy="864" grid="1" gridSize="10" guides="1" tooltips="1" connect="1" arrows="1" fold="1" page="1" pageScale="1" pageWidth="827" pageHeight="1169" math="0" shadow="0">
      <root>
        <mxCell id="0" />
        <mxCell id="1" parent="0" />
        <mxCell id="4lovMyvM5FdtihwfZL1L-23" value="" style="edgeStyle=orthogonalEdgeStyle;rounded=0;orthogonalLoop=1;jettySize=auto;html=1;" edge="1" parent="1" source="4lovMyvM5FdtihwfZL1L-18" target="4lovMyvM5FdtihwfZL1L-19">
          <mxGeometry relative="1" as="geometry" />
        </mxCell>
        <mxCell id="4lovMyvM5FdtihwfZL1L-18" value="START" style="ellipse;whiteSpace=wrap;html=1;" vertex="1" parent="1">
          <mxGeometry x="330" y="60" width="120" height="80" as="geometry" />
        </mxCell>
        <mxCell id="4lovMyvM5FdtihwfZL1L-24" value="" style="edgeStyle=orthogonalEdgeStyle;rounded=0;orthogonalLoop=1;jettySize=auto;html=1;" edge="1" parent="1" source="4lovMyvM5FdtihwfZL1L-19" target="4lovMyvM5FdtihwfZL1L-20">
          <mxGeometry relative="1" as="geometry" />
        </mxCell>
        <mxCell id="4lovMyvM5FdtihwfZL1L-19" value="A,B,C,AVERAGE" style="shape=parallelogram;perimeter=parallelogramPerimeter;whiteSpace=wrap;html=1;fixedSize=1;" vertex="1" parent="1">
          <mxGeometry x="330" y="200" width="120" height="60" as="geometry" />
        </mxCell>
        <mxCell id="4lovMyvM5FdtihwfZL1L-25" value="" style="edgeStyle=orthogonalEdgeStyle;rounded=0;orthogonalLoop=1;jettySize=auto;html=1;" edge="1" parent="1" source="4lovMyvM5FdtihwfZL1L-20" target="4lovMyvM5FdtihwfZL1L-21">
          <mxGeometry relative="1" as="geometry" />
        </mxCell>
        <mxCell id="4lovMyvM5FdtihwfZL1L-20" value="AVERAGE=A+B+C&lt;div&gt;AVERAGE=AVERAGE/3&lt;/div&gt;" style="rounded=0;whiteSpace=wrap;html=1;" vertex="1" parent="1">
          <mxGeometry x="330" y="320" width="140" height="60" as="geometry" />
        </mxCell>
        <mxCell id="4lovMyvM5FdtihwfZL1L-26" value="" style="edgeStyle=orthogonalEdgeStyle;rounded=0;orthogonalLoop=1;jettySize=auto;html=1;" edge="1" parent="1" source="4lovMyvM5FdtihwfZL1L-21" target="4lovMyvM5FdtihwfZL1L-22">
          <mxGeometry relative="1" as="geometry" />
        </mxCell>
        <mxCell id="4lovMyvM5FdtihwfZL1L-21" value="DISPLAY AVERAGE" style="shape=parallelogram;perimeter=parallelogramPerimeter;whiteSpace=wrap;html=1;fixedSize=1;" vertex="1" parent="1">
          <mxGeometry x="340" y="420" width="160" height="80" as="geometry" />
        </mxCell>
        <mxCell id="4lovMyvM5FdtihwfZL1L-22" value="STOP" style="ellipse;whiteSpace=wrap;html=1;" vertex="1" parent="1">
          <mxGeometry x="340" y="530" width="120" height="80" as="geometry" />
        </mxCell>
      </root>
    </mxGraphModel>
  </diagram>
</mxfile>
